<?xml version="1.0" standalone="no"?>
<!DOCTYPE svg PUBLIC "-//W3C//DTD SVG 20010904//EN"
 "http://www.w3.org/TR/2001/REC-SVG-20010904/DTD/svg10.dtd">
<svg version="1.0" xmlns="http://www.w3.org/2000/svg"
 width="1000.000000pt" height="500.000000pt" viewBox="0 0 1000.000000 500.000000"
 preserveAspectRatio="xMidYMid meet">

<g transform="translate(0.000000,500.000000) scale(0.100000,-0.100000)"
fill="#000000" stroke="none">
<path d="M0 2500 l0 -2500 5000 0 5000 0 0 2500 0 2500 -5000 0 -5000 0 0
-2500z m4306 384 c284 -109 613 -154 966 -134 95 6 214 17 263 25 50 8 93 15
96 15 3 0 9 -66 12 -147 6 -155 37 -365 87 -593 17 -74 30 -139 30 -143 0 -5
-26 -36 -58 -70 -213 -224 -440 -557 -563 -826 -38 -83 -109 -261 -109 -275 0
-6 -4 -18 -10 -26 -7 -12 -12 -12 -29 4 -20 19 -21 28 -21 381 l0 362 64 32
c68 33 115 81 141 145 26 62 22 72 -41 85 l-57 11 -91 -52 c-50 -28 -108 -62
-130 -74 -22 -12 -49 -40 -63 -65 -22 -40 -23 -44 -8 -55 9 -7 34 -16 56 -19
l39 -7 -2 -371 c-3 -371 -3 -372 -24 -375 -16 -2 -23 4 -29 25 -25 99 -178
436 -263 578 -57 95 -263 361 -394 507 -37 42 -68 84 -68 93 0 9 13 74 29 143
55 236 82 441 88 655 3 108 9 197 13 197 4 0 39 -12 76 -26z m611 -2310 c28
-7 53 11 53 37 0 26 12 24 43 -7 32 -32 44 -84 27 -123 -50 -121 -230 -86
-230 44 0 35 6 49 32 76 l32 34 10 -28 c6 -16 20 -30 33 -33z"/>
<path d="M4840 2027 c-81 -23 -83 -26 -52 -74 17 -27 49 -56 87 -78 103 -62
238 -124 284 -131 l44 -6 -7 43 c-16 100 -75 183 -159 223 -65 31 -138 39
-197 23z"/>
<path d="M4692 1934 c-96 -109 -96 -269 0 -378 22 -26 44 -44 49 -40 5 3 18
23 29 44 17 34 20 59 20 186 0 140 -1 149 -25 191 -14 23 -28 43 -30 43 -2 0
-21 -20 -43 -46z"/>
<path d="M4827 1863 c-4 -3 -7 -57 -7 -119 0 -83 3 -113 13 -117 15 -6 199
103 201 118 1 9 -179 124 -195 125 -3 0 -9 -3 -12 -7z m196 -113 c9 -8 -161
-110 -182 -110 -11 0 -17 201 -5 212 5 5 165 -82 187 -102z"/>
</g>
</svg>
