<?xml version="1.0" encoding="UTF-8"?>
<svg version="1.1" xmlns="http://www.w3.org/2000/svg" width="1254" height="1254">
<path d="M0 0 C413.82 0 827.64 0 1254 0 C1254 413.82 1254 827.64 1254 1254 C840.18 1254 426.36 1254 0 1254 C0 840.18 0 426.36 0 0 Z " fill="#FDFDFD" transform="translate(0,0)"/>
<path d="M0 0 C0.86729736 -0.00133942 1.73459473 -0.00267883 2.62817383 -0.00405884 C18.17126062 0.00110699 33.35386515 0.99392734 48.75 3.25 C49.53616699 3.35683105 50.32233398 3.46366211 51.13232422 3.57373047 C73.22792999 6.6368363 99.02511185 14.90560843 113.5625 32.625 C123.1964953 45.7664073 123.98609396 58.36369827 122.75 74.25 C120.01768151 90.93535823 107.57316343 106.15941532 94.671875 116.38671875 C92.75 117.25 92.75 117.25 90.140625 117.19140625 C87.75 116.25 87.75 116.25 86.5625 114.140625 C86.294375 113.26921875 86.02625 112.3978125 85.75 111.5 C84.118462 106.94205258 82.56833559 104.37409276 78.75 101.25 C78.19699219 100.77046875 77.64398437 100.2909375 77.07421875 99.796875 C59.91470666 85.7282067 35.48264664 86.25638516 14.75 84.25 C15.08 116.26 15.41 148.27 15.75 181.25 C23.01 181.58 30.27 181.91 37.75 182.25 C42.52043786 182.73173764 47.20337549 183.24720127 51.9375 183.9375 C53.75350708 184.19805176 53.75350708 184.19805176 55.60620117 184.46386719 C102.54828239 191.49679958 147.35354805 207.60744289 181.75 241.25 C182.54664063 241.98476563 183.34328125 242.71953125 184.1640625 243.4765625 C194.93961823 253.64289953 202.92050575 266.27121813 209.74316406 279.32519531 C210.68207505 281.12014541 211.64860395 282.90057379 212.6171875 284.6796875 C229.4268041 317.62653604 232.44063399 360.6265003 224.3828125 396.43408203 C223.71726877 399.39564891 223.10892624 402.36615998 222.5 405.33984375 C219.22088122 420.69469467 214.08519455 434.90549502 207.75 449.25 C207.1305249 450.65838135 207.1305249 450.65838135 206.49853516 452.09521484 C196.08952433 475.47310049 182.21357187 496.68811756 165.75 516.25 C165.09257813 517.08015625 164.43515625 517.9103125 163.7578125 518.765625 C156.6287997 527.75087132 148.70386767 535.99678189 140.75 544.25 C140.17169434 544.8589209 139.59338867 545.4678418 138.99755859 546.09521484 C137.62106753 547.51927183 136.1904345 548.89065663 134.75 550.25 C134.09 550.25 133.43 550.25 132.75 550.25 C132.42 551.24 132.09 552.23 131.75 553.25 C130.39453125 554.65234375 130.39453125 554.65234375 128.5625 556.1875 C127.83546875 556.80367187 127.1084375 557.41984375 126.359375 558.0546875 C125.49828125 558.77914062 124.6371875 559.50359375 123.75 560.25 C122.73311176 561.12614013 121.71756617 562.00384018 120.703125 562.8828125 C106.45366693 575.21330716 91.93207395 587.08536878 76.75 598.25 C75.23029092 599.37215504 73.71076544 600.49455877 72.19140625 601.6171875 C68.18884947 604.5721063 64.18175656 607.52081058 60.17333984 610.46777344 C56.19677482 613.39230746 52.22353729 616.32135433 48.25 619.25 C46.66668304 620.41668888 45.08334969 621.58335553 43.5 622.75 C42.324375 623.61625 42.324375 623.61625 41.125 624.5 C34 629.75 34 629.75 31.62451172 631.5 C30.04234756 632.6660449 28.4606411 633.83271108 26.87939453 635 C22.90670668 637.93146248 18.92648338 640.85147381 14.9296875 643.75 C4.8498836 651.07993039 -4.87740499 658.71669554 -14.42382812 666.72802734 C-16.92247365 668.81045465 -19.46266919 670.84000202 -22 672.875 C-27.23910521 677.15214508 -32.17835405 681.72017779 -37.1171875 686.3359375 C-39.8532313 688.8921318 -42.63643419 691.39004193 -45.4375 693.875 C-55.28168359 702.73157941 -64.00394807 712.16066636 -71.89453125 722.80078125 C-72.33925781 723.39528076 -72.78398438 723.98978027 -73.2421875 724.60229492 C-74.10487325 725.76057178 -74.95820907 726.92588756 -75.80078125 728.09887695 C-77.55580091 730.45826707 -78.74881349 732.06045416 -81.54296875 733.1171875 C-82.38794922 733.18292969 -82.38794922 733.18292969 -83.25 733.25 C-83.98605469 732.36957031 -84.72210937 731.48914063 -85.48046875 730.58203125 C-86.46602369 729.40875156 -87.45170766 728.23558023 -88.4375 727.0625 C-88.92025391 726.48435547 -89.40300781 725.90621094 -89.90039062 725.31054688 C-92.86884641 721.78426048 -95.95739231 718.48214244 -99.25 715.25 C-99.79140625 714.65058594 -100.3328125 714.05117188 -100.890625 713.43359375 C-119.25738182 693.50655419 -146.47537174 681.41215149 -172.5234375 675.83984375 C-175.82062399 675.12655556 -179.02225967 674.22582847 -182.25 673.25 C-178.68398847 663.74616462 -172.16420215 656.51877662 -165.25 649.25 C-164.7873877 648.75483887 -164.32477539 648.25967773 -163.84814453 647.74951172 C-155.12074971 638.44783169 -145.56505531 630.72404432 -135.25 623.25 C-134.18942383 622.47825439 -134.18942383 622.47825439 -133.10742188 621.69091797 C-122.72742642 614.16852476 -112.07165181 607.11730987 -101.25 600.25 C-100.50524414 599.77594727 -99.76048828 599.30189453 -98.99316406 598.81347656 C-89.95176729 593.06125771 -80.86679327 587.38187284 -71.75 581.75 C-55.10756998 571.46739391 -38.61474963 560.96915403 -22.25 550.25 C-20.65478516 549.20779297 -20.65478516 549.20779297 -19.02734375 548.14453125 C-0.11947378 535.67225134 18.54947957 522.65187524 35.71484375 507.84765625 C38.64289649 505.34166517 41.62168156 502.91491319 44.625 500.5 C48.33531015 497.48235267 51.76617667 494.35984155 55.08203125 490.91796875 C56.85184254 489.14815746 58.71150732 487.55024727 60.625 485.9375 C65.44867187 481.76192224 69.57808039 477.0653163 73.75 472.25 C74.6059375 471.28191406 75.461875 470.31382812 76.34375 469.31640625 C93.70609675 449.4728246 107.46921357 426.94102662 116.75 402.25 C117.1224585 401.26507568 117.1224585 401.26507568 117.50244141 400.26025391 C127.70556475 372.79030644 132.1826066 340.69927483 120.0234375 313.203125 C109.37329316 290.90096504 88.98725818 275.78599965 66.24658203 267.11572266 C50.16297162 261.5385192 33.65188274 259.31898463 16.75 258.25 C16.76047363 259.46880859 16.77094727 260.68761719 16.78173828 261.94335938 C16.81843043 266.54310063 16.84107613 271.14282948 16.85986328 275.74267578 C16.86981036 277.71893502 16.88337281 279.69517998 16.90087891 281.67138672 C17.00499405 293.74261953 16.54637313 305.30810497 14.75 317.25 C14.52789436 319.11879373 14.31348579 320.98853035 14.109375 322.859375 C11.69692937 343.63542034 7.82230053 364.51999719 0.75 384.25 C0.47994141 385.02794922 0.20988281 385.80589844 -0.06835938 386.60742188 C-7.0739675 406.66542131 -16.44579998 425.26147751 -29.25 442.25 C-29.73662109 442.89743164 -30.22324219 443.54486328 -30.72460938 444.21191406 C-42.85296293 460.14508746 -56.92643841 474.60346564 -73.25 486.25 C-73.83426758 486.66797852 -74.41853516 487.08595703 -75.02050781 487.51660156 C-84.41452133 494.15816402 -94.30359956 499.77997924 -104.42089844 505.23730469 C-105.90994548 506.06172635 -107.36359512 506.94982813 -108.8046875 507.85546875 C-111.98303008 509.66803792 -115.31898797 510.89016518 -118.75 512.125 C-120.19043512 512.65013475 -121.63053568 513.17618803 -123.0703125 513.703125 C-124.13620605 514.09274414 -124.13620605 514.09274414 -125.22363281 514.49023438 C-128.0520343 515.55071455 -130.83246105 516.72387707 -133.625 517.875 C-141.60201708 520.96447984 -149.88777313 522.57137564 -158.25 524.25 C-159.72726562 524.55744141 -159.72726562 524.55744141 -161.234375 524.87109375 C-163.56954364 525.35077011 -165.90817323 525.80412904 -168.25 526.25 C-169.11496094 526.42402344 -169.97992188 526.59804688 -170.87109375 526.77734375 C-182.70173342 529.07634749 -194.53274178 529.48291049 -206.5625 529.5 C-207.25344757 529.50200409 -207.94439514 529.50400818 -208.65628052 529.506073 C-221.20935536 529.51493012 -233.95970988 529.03379527 -246.25 526.25 C-246.58 525.92 -246.91 525.59 -247.25 525.25 C-248.91892329 524.93574981 -250.58918616 524.62737783 -252.26464844 524.35009766 C-288.0014544 518.42152527 -322.7735738 497.97450813 -344.05078125 468.484375 C-350.62486601 458.81591642 -356.17718342 449.64860451 -359.25 438.25 C-360.43087388 433.69139014 -360.43087388 433.69139014 -362.25146484 429.37646484 C-368.03298715 417.06422541 -366.53407537 398.76968699 -366.5625 385.375 C-366.56781738 384.1473291 -366.57313477 382.9196582 -366.57861328 381.65478516 C-366.50526998 372.20894016 -365.93434618 363.03378094 -362.25 354.25 C-361.64651661 352.15152366 -361.06508141 350.04664157 -360.5 347.9375 C-350.79342233 313.98212647 -330.08277578 285.05284707 -303.25 262.25 C-302.6533252 261.73630859 -302.05665039 261.22261719 -301.44189453 260.69335938 C-241.12274467 209.11008639 -151.03477077 182.25 -72.25 182.25 C-72.25 151.89 -72.25 121.53 -72.25 90.25 C-86.74644296 91.5309075 -86.74644296 91.5309075 -94.25 94.25 C-95.99947358 94.54422064 -97.75557054 94.8011047 -99.515625 95.0234375 C-107.16151215 96.23800625 -114.34069143 98.62252618 -121.65722656 101.08837891 C-123.97759272 101.86747642 -126.30449694 102.62394968 -128.6328125 103.37890625 C-139.01126177 106.80653444 -148.61486424 111.1039693 -158.25 116.25 C-159.36117187 116.83958496 -160.47234375 117.42916992 -161.6171875 118.03662109 C-177.86598311 126.82773714 -189.31951085 139.0237361 -196.25 156.25 C-209.97810673 155.91590891 -223.46182077 149.15609704 -233.59375 140.00390625 C-244.56083751 128.39017442 -247.79398499 116.24965765 -247.51953125 100.76953125 C-246.91637096 86.40362001 -237.33240416 75.59859714 -227.41015625 66.00390625 C-199.3619321 40.81865873 -158.99982478 26.71874487 -123.25 17.25 C-122.41243164 17.02393066 -121.57486328 16.79786133 -120.71191406 16.56494141 C-97.7157031 10.40333615 -74.44122381 5.79348381 -50.8125 2.9375 C-49.81018845 2.81553253 -49.81018845 2.81553253 -48.78762817 2.69110107 C-32.5248079 0.7415449 -16.36230967 0.01510089 0 0 Z " fill="#0146BE" transform="translate(679.25,230.75)"/>
<path d="M0 0 C2.05078125 0.25 2.05078125 0.25 4.5625 0.8125 C5.66980469 1.06 6.77710938 1.3075 7.91796875 1.5625 C11.83895919 2.53766861 15.69676558 3.64166163 19.5625 4.8125 C20.67753906 5.13992188 21.79257812 5.46734375 22.94140625 5.8046875 C47.87546443 13.87072285 79.0296141 33.88608147 91.5625 57.8125 C91.15789214 61.62737411 89.05038139 64.40065942 87 67.5625 C70.70750838 93.42646217 60.40044596 123.53068466 56.5625 153.8125 C55.83998047 154.08288086 55.11746094 154.35326172 54.37304688 154.63183594 C15.01921442 169.46099643 -20.18751894 189.70508349 -52.4375 216.8125 C-53.57766738 217.75836439 -54.71827849 218.70369422 -55.859375 219.6484375 C-65.16581852 227.39139851 -74.22102884 235.41900153 -82.63671875 244.12890625 C-83.70829224 245.23069214 -83.70829224 245.23069214 -84.80151367 246.35473633 C-86.20268572 247.80299314 -87.59265179 249.26219424 -88.9699707 250.7331543 C-89.60894287 251.39355713 -90.24791504 252.05395996 -90.90625 252.734375 C-91.46763672 253.32831055 -92.02902344 253.92224609 -92.60742188 254.53417969 C-94.98572536 256.19543863 -96.60012266 256.05198729 -99.4375 255.8125 C-100.33601864 253.37278651 -100.63608829 252.26096098 -99.56396484 249.83984375 C-99.09684082 249.15019531 -98.6297168 248.46054688 -98.1484375 247.75 C-97.62596436 246.96407471 -97.10349121 246.17814941 -96.56518555 245.3684082 C-95.6976062 244.10323364 -95.6976062 244.10323364 -94.8125 242.8125 C-93.59736886 240.99368155 -92.38253289 239.17466588 -91.16796875 237.35546875 C-90.54325684 236.42911621 -89.91854492 235.50276367 -89.27490234 234.54833984 C-86.51323768 230.43629969 -83.81847589 226.28189033 -81.125 222.125 C-80.5997876 221.31780518 -80.0745752 220.51061035 -79.53344727 219.67895508 C-74.42259474 211.81769005 -69.37560153 203.91566417 -64.34448242 196.00317383 C-60.41208115 189.83574848 -56.40012982 183.72790924 -52.33308411 177.64897156 C-49.27238124 173.07230064 -46.23697862 168.47978702 -43.21875 163.875 C-42.78427048 163.21216507 -42.34979095 162.54933014 -41.90214539 161.8664093 C-40.58016863 159.84871965 -39.25872939 157.83067911 -37.9375 155.8125 C-37.05606007 154.46609969 -36.17454971 153.11974548 -35.29296875 151.7734375 C-34.85719513 151.10765182 -34.42142151 150.44186615 -33.97244263 149.75590515 C-33.10065644 148.42728473 -32.22639813 147.10028287 -31.34957886 145.77497864 C-29.10699515 142.38316465 -26.90792617 138.97332374 -24.77001953 135.5144043 C-24.33266479 134.82181519 -23.89531006 134.12922607 -23.44470215 133.41564941 C-22.61348132 132.09873764 -21.79666965 130.77257811 -20.99719238 129.43615723 C-18.99908794 126.30938513 -17.85503565 124.9459724 -14.26953125 123.79980469 C-11.3125 123.625 -11.3125 123.625 -8.2734375 123.75390625 C-3.95908622 123.84304574 -0.882904 122.31145567 2.5625 119.8125 C7.05708482 115.08742365 7.81286931 111.32282323 7.7109375 105.0234375 C7.33134907 99.36956771 4.72261954 96.47736721 0.5625 92.8125 C-4.74514472 89.38936734 -11.39521605 90.27510188 -17.4375 90.8125 C-21.14568753 91.79389637 -23.4485955 93.44347605 -25.73828125 96.61328125 C-28.22689181 101.01752331 -29.16446438 104.72374936 -28.4375 109.8125 C-27.43800801 111.93542099 -26.35823632 113.92661264 -25.1171875 115.91796875 C-24.4375 117.8125 -24.4375 117.8125 -25.16674805 119.58374023 C-26.69480163 122.26377888 -28.36666177 124.80789656 -30.08984375 127.3671875 C-30.80640137 128.43291992 -31.52295898 129.49865234 -32.26123047 130.59667969 C-35.49980297 135.38223914 -38.74461351 140.16336037 -42 144.9375 C-49.49566951 155.94465433 -56.96142219 166.97182851 -64.41931152 178.00460815 C-70.84754086 187.51357264 -77.28921845 197.01312549 -83.75 206.5 C-88.19236892 213.02471314 -92.62405836 219.55551363 -97 226.125 C-97.38728271 226.70419189 -97.77456543 227.28338379 -98.17358398 227.88012695 C-100.04203459 230.68178408 -101.8789142 233.49980629 -103.67578125 236.34765625 C-104.38089844 237.44980469 -105.08601563 238.55195312 -105.8125 239.6875 C-106.41835938 240.65429688 -107.02421875 241.62109375 -107.6484375 242.6171875 C-109.4375 244.8125 -109.4375 244.8125 -111.6015625 245.6953125 C-112.20742188 245.73398438 -112.81328125 245.77265625 -113.4375 245.8125 C-114.4375 244.8125 -114.4375 244.8125 -114.61694336 242.10791016 C-114.43152083 238.7026947 -113.76091173 236.2679149 -112.56640625 233.0859375 C-112.16131836 231.98612549 -111.75623047 230.88631348 -111.33886719 229.75317383 C-110.89704102 228.57650146 -110.45521484 227.3998291 -110 226.1875 C-109.07610939 223.65868791 -108.15485311 221.12911099 -107.23828125 218.59765625 C-106.88653336 217.6286161 -106.88653336 217.6286161 -106.52767944 216.63999939 C-99.54592947 197.33640907 -93.81871673 177.86108325 -89.4375 157.8125 C-89.00824219 155.89872559 -89.00824219 155.89872559 -88.5703125 153.94628906 C-85.03625932 138.16806426 -82.0383585 122.43597268 -80.125 106.375 C-80.03909607 105.68062836 -79.95319214 104.98625671 -79.86468506 104.27084351 C-79.07290015 97.84861964 -78.33360973 91.49813861 -78.45703125 85.015625 C-78.53098413 74.04207432 -78.53098413 74.04207432 -74.57470703 69.82861328 C-69.69106925 65.72586435 -64.3324175 62.46857162 -58.83642578 59.25830078 C-49.96960016 53.91438247 -42.40579065 46.27484718 -34.90185547 39.19335938 C-33.50544644 37.8765722 -32.09867406 36.57080084 -30.69140625 35.265625 C-21.18127839 26.15577828 -12.74910122 15.64417411 -6.125 4.25 C-4.0709402 1.15089223 -3.83755605 0.9070587 0 0 Z " fill="#0246BE" transform="translate(494.4375,918.1875)"/>
<path d="M0 0 C0.42790943 43.98908963 0.42790943 43.98908963 -2 59 C-2.16072998 60.00111816 -2.16072998 60.00111816 -2.32470703 61.02246094 C-6.68917458 87.05679574 -16.33763577 113.98037632 -34 134 C-34.69738281 134.81726563 -35.39476562 135.63453125 -36.11328125 136.4765625 C-57.48940649 161.00405257 -85.60811671 174.73752446 -118.10546875 177.15673828 C-138.9196322 178.1739334 -159.15047856 173.26866265 -175.3125 159.8125 C-185.83664393 149.88055066 -190.71712556 136.66293068 -191.25 122.4375 C-190.98860584 103.29763891 -181.93441806 86.39747881 -170 72 C-169.39414062 71.25878906 -168.78828125 70.51757812 -168.1640625 69.75390625 C-163.02845024 63.70646079 -157.23697844 58.87393017 -151 54 C-149.58654297 52.82824219 -149.58654297 52.82824219 -148.14453125 51.6328125 C-138.50450225 43.82601023 -127.88885231 37.89168291 -117 32 C-116.36046387 31.65388672 -115.72092773 31.30777344 -115.06201172 30.95117188 C-109.11962884 27.77320679 -103.1308356 25.19273174 -96.765625 22.9921875 C-93.87328085 21.95453861 -91.07217519 20.7773936 -88.25 19.5625 C-70.89884344 12.29407171 -52.45277721 7.52771045 -34 4 C-33.12529053 3.8254126 -32.25058105 3.6508252 -31.34936523 3.47094727 C-28.61040107 2.92522213 -25.86823094 2.39881355 -23.125 1.875 C-21.76955078 1.60236328 -21.76955078 1.60236328 -20.38671875 1.32421875 C-13.53688212 0.03198007 -6.96148992 -0.20542101 0 0 Z " fill="#FCFCFD" transform="translate(607,490)"/>
<path d="M0 0 C0.3444705 9.61965762 -0.03075463 18.9513618 -1.3125 28.5 C-1.48906128 29.85955811 -1.48906128 29.85955811 -1.66918945 31.24658203 C-2.4033688 36.36376042 -3.55544282 41.04603399 -5.28833008 45.91357422 C-6.33820183 48.99151728 -6.98868156 52.13884161 -7.6875 55.3125 C-14.66566251 84.49869101 -30.46303556 109.92995949 -56.23828125 125.80078125 C-74.83141153 136.88153566 -95.38039415 141.86217371 -116.41552734 145.95629883 C-126.91023781 148.01765656 -136.06791778 150.40561325 -145.45410156 155.62915039 C-148 157 -148 157 -150 157 C-149.43232583 152.04487799 -147.19705458 148.38797416 -144.6875 144.1875 C-144.02633179 143.07459595 -144.02633179 143.07459595 -143.35180664 141.93920898 C-136.10553776 129.99026465 -127.51126501 119.21580316 -118 109 C-116.8705773 107.69130385 -115.74541241 106.37891836 -114.625 105.0625 C-106.81379819 96.13541222 -98.27478298 88.37192219 -89 81 C-87.31233994 79.58352401 -85.62484337 78.16685321 -83.9375 76.75 C-71.40597233 66.5066828 -57.52205123 55.26102562 -43 48 C-49.07045332 48.99156892 -54.18764918 51.72047975 -59.6875 54.375 C-60.8014917 54.91229736 -61.9154834 55.44959473 -63.06323242 56.00317383 C-77.3255485 62.99137052 -90.58232471 71.08717767 -103 81 C-103.93199219 81.73992187 -104.86398437 82.47984375 -105.82421875 83.2421875 C-120.5580379 95.11965956 -133.36179302 107.57803614 -143.99169922 123.26367188 C-146.42391823 126.84693412 -148.77016742 130.06725108 -152 133 C-159.05801993 115.50838538 -157.3599054 95.81818454 -150.234375 78.61328125 C-146.4644693 69.99188513 -141.9800328 62.30487746 -136 55 C-135.44828125 54.29746094 -134.8965625 53.59492187 -134.328125 52.87109375 C-123.09987099 39.21005137 -107.32821868 30.18493132 -91 24 C-89.87078125 23.56945312 -88.7415625 23.13890625 -87.578125 22.6953125 C-73.13744121 17.70614922 -57.84325716 15.81469263 -42.79101562 13.50830078 C-36.37415891 12.49861965 -30.21309601 11.14537336 -24 9.25 C-23.14422363 8.9926709 -22.28844727 8.7353418 -21.40673828 8.47021484 C-15.28126279 6.56099075 -9.74163961 4.20855446 -4.1171875 1.1015625 C-2 0 -2 0 0 0 Z " fill="#3A9B11" transform="translate(770,58)"/>
<path d="M0 0 C0.3444705 9.61965762 -0.03075463 18.9513618 -1.3125 28.5 C-1.48906128 29.85955811 -1.48906128 29.85955811 -1.66918945 31.24658203 C-2.40217991 36.35547395 -3.54967694 41.0318904 -5.27954102 45.89160156 C-6.36893271 49.07966889 -7.0681475 52.34169172 -7.8125 55.625 C-9.73669266 63.76671581 -12.69435812 71.33091085 -16 79 C-16.33 79 -16.66 79 -17 79 C-17.18706174 74.88464173 -16.81691769 72.61415757 -15 69 C-14.47902776 67.1152261 -14.00329273 65.21762112 -13.5625 63.3125 C-12.68453765 59.65947074 -11.75272631 56.10423931 -10.5 52.5625 C-5.3173319 37.41939164 -2.13645097 20.02363202 -3 4 C-3.53109375 4.47050781 -4.0621875 4.94101562 -4.609375 5.42578125 C-7.51656642 7.3401573 -9.81739077 7.70245739 -13.25 8.1875 C-14.32765625 8.34605469 -15.4053125 8.50460938 -16.515625 8.66796875 C-17.33546875 8.77753906 -18.1553125 8.88710937 -19 9 C-19 9.66 -19 10.32 -19 11 C-30.39225649 14.68321075 -40.0356013 16.16192419 -52 16 C-52 15.67 -52 15.34 -52 15 C-51.18402344 14.93683594 -50.36804688 14.87367187 -49.52734375 14.80859375 C-33.83125579 13.18603841 -17.82807336 8.79146292 -4.01171875 1.06640625 C-2 0 -2 0 0 0 Z " fill="#79C326" transform="translate(770,58)"/>
<path d="M0 0 C2.97 0 5.94 0 9 0 C9 0.33 9 0.66 9 1 C6.36 1 3.72 1 1 1 C1.00523682 2.27641357 1.01047363 3.55282715 1.01586914 4.86791992 C1.03399149 9.61091407 1.04545849 14.35390517 1.05493164 19.09692383 C1.0599553 21.14836136 1.06677537 23.19979532 1.07543945 25.2512207 C1.08759112 28.2026457 1.09324804 31.15402327 1.09765625 34.10546875 C1.10281754 35.02023483 1.10797882 35.93500092 1.11329651 36.87748718 C1.11366265 41.04884192 1.06733315 44.93379308 0 49 C-0.33 49 -0.66 49 -1 49 C-1.07347656 47.93458984 -1.07347656 47.93458984 -1.1484375 46.84765625 C-1.22320313 45.92855469 -1.29796875 45.00945313 -1.375 44.0625 C-1.44460938 43.14597656 -1.51421875 42.22945312 -1.5859375 41.28515625 C-1.72257813 40.53105469 -1.85921875 39.77695312 -2 39 C-2.66 38.67 -3.32 38.34 -4 38 C-3.84660156 36.75347656 -3.69320312 35.50695312 -3.53515625 34.22265625 C-2.91447586 28.63653273 -2.66413379 23.05133032 -2.4375 17.4375 C-2.39431641 16.42880859 -2.35113281 15.42011719 -2.30664062 14.38085938 C-2.20170382 11.92067425 -2.09954299 9.46040825 -2 7 C-1.67 7 -1.34 7 -1 7 C-0.67 4.69 -0.34 2.38 0 0 Z " fill="#4D75CC" transform="translate(695,488)"/>
<path d="M0 0 C0.66 0.33 1.32 0.66 2 1 C1.125 8.875 1.125 8.875 0 10 C-1.3360243 19.70844324 -1.99485611 29.86890033 2 39 C3.98 37.35 5.96 35.7 8 34 C7.39305845 37.15330554 6.3583335 39.18888867 4.4375 41.75 C3.75494141 42.67039062 3.75494141 42.67039062 3.05859375 43.609375 C2.53458984 44.29773438 2.53458984 44.29773438 2 45 C0 44 0 44 -0.8515625 41.5078125 C-3.96854091 27.87496754 -5.02384134 13.30719879 0 0 Z " fill="#10781C" transform="translate(617,146)"/>
<path d="M0 0 C-2.90650864 2.01508405 -5.82673923 4.00931321 -8.75 6 C-9.575 6.57234375 -10.4 7.1446875 -11.25 7.734375 C-12.04921875 8.27578125 -12.8484375 8.8171875 -13.671875 9.375 C-14.4050293 9.87773438 -15.13818359 10.38046875 -15.89355469 10.8984375 C-18 12 -18 12 -22 12 C-23.75 10.5 -23.75 10.5 -25 9 C-21.59264572 7.2931993 -18.17282773 5.61302576 -14.75 3.9375 C-13.78191406 3.45216797 -12.81382812 2.96683594 -11.81640625 2.46679688 C-10.88183594 2.01240234 -9.94726562 1.55800781 -8.984375 1.08984375 C-7.69611816 0.45357056 -7.69611816 0.45357056 -6.38183594 -0.19555664 C-3.74791017 -1.08514104 -2.56638156 -0.95849676 0 0 Z " fill="#E5F3E0" transform="translate(728,106)"/>
<path d="M0 0 C0.33 0 0.66 0 1 0 C1.44656731 13.32831662 -3.80777073 25.95402808 -9 38 C-9.33 38 -9.66 38 -10 38 C-10.18706174 33.88464173 -9.81691769 31.61415757 -8 28 C-7.47902776 26.1152261 -7.00329273 24.21762112 -6.5625 22.3125 C-5.47521282 17.7986108 -4.2154912 13.4313904 -2.6953125 9.046875 C-1.68110161 6.06122047 -0.8404737 3.03863567 0 0 Z " fill="#72BF20" transform="translate(763,99)"/>
<path d="M0 0 C0.99 0.33 1.98 0.66 3 1 C2.49138428 1.50337891 1.98276855 2.00675781 1.45874023 2.52539062 C-0.88440728 4.84751978 -3.22346602 7.1737277 -5.5625 9.5 C-6.36236328 10.29148438 -7.16222656 11.08296875 -7.98632812 11.8984375 C-12.87136018 16.76353065 -17.54344666 21.73885419 -22 27 C-22.66 26.67 -23.32 26.34 -24 26 C-23.43152344 25.3709375 -22.86304688 24.741875 -22.27734375 24.09375 C-18.6291278 20.04965085 -14.99023143 16.0034055 -11.4375 11.875 C-7.822426 7.71681629 -3.94033303 3.84822135 0 0 Z " fill="#1E891D" transform="translate(667,151)"/>
<path d="M0 0 C1 2 1 2 1 5 C1.60328125 4.77183594 2.2065625 4.54367188 2.828125 4.30859375 C4.02695312 3.87740234 4.02695312 3.87740234 5.25 3.4375 C6.03890625 3.14746094 6.8278125 2.85742188 7.640625 2.55859375 C10.19103452 1.95477163 11.55322229 2.1526068 14 3 C13.19175781 3.32613281 12.38351562 3.65226563 11.55078125 3.98828125 C10.48214844 4.42527344 9.41351562 4.86226562 8.3125 5.3125 C7.25675781 5.74175781 6.20101562 6.17101562 5.11328125 6.61328125 C1.99437593 7.92618963 1.99437593 7.92618963 -0.76953125 9.66796875 C-3 11 -3 11 -5 11 C-4.46884894 6.48521602 -2.63379708 3.65333143 0 0 Z " fill="#167827" transform="translate(625,204)"/>
<path d="M0 0 C-1.38691459 3.2221248 -2.92436673 5.03354401 -5.625 7.25 C-9.99400085 10.93884504 -14.00691549 14.91133634 -18 19 C-18.33 18.01 -18.66 17.02 -19 16 C-18.236875 15.4225 -17.47375 14.845 -16.6875 14.25 C-13.99108421 12.16642802 -13.99108421 12.16642802 -12.3125 9.75 C-11.879375 9.1725 -11.44625 8.595 -11 8 C-10.34 8 -9.68 8 -9 8 C-9 7.34 -9 6.68 -9 6 C-7.5390625 4.4921875 -7.5390625 4.4921875 -5.625 2.875 C-4.68527344 2.06675781 -4.68527344 2.06675781 -3.7265625 1.2421875 C-2 0 -2 0 0 0 Z " fill="#138618" transform="translate(657,145)"/>
<path d="M0 0 C-3.07617188 0.29296875 -3.07617188 0.29296875 -6.15234375 0.5859375 C-6.76207031 0.72257812 -7.37179687 0.85921875 -8 1 C-8.33 1.66 -8.66 2.32 -9 3 C-12.64473199 3.89093449 -15.42742531 4.23666047 -19 3 C-19 3.66 -19 4.32 -19 5 C-22.87493656 6.07637127 -24.52452927 5.94566951 -28 4 C-25.31339217 3.35025795 -22.62581326 2.70511582 -19.9375 2.0625 C-19.18533203 1.88009766 -18.43316406 1.69769531 -17.65820312 1.50976562 C-4.5052498 -1.62188993 -4.5052498 -1.62188993 0 0 Z " fill="#75BC51" transform="translate(716,75)"/>
<path d="M0 0 C0.66 0.66 1.32 1.32 2 2 C1.29875 2.825 0.5975 3.65 -0.125 4.5 C-4.4739774 9.7261859 -8.6601703 15.06252497 -12 21 C-12.33 20.34 -12.66 19.68 -13 19 C-9.43512805 12.23471585 -4.70405864 6.01361342 0 0 Z " fill="#1A8129" transform="translate(640,181)"/>
<path d="M0 0 C0.99 0.33 1.98 0.66 3 1 C1.90033225 2.29549899 0.79508199 3.58626071 -0.3125 4.875 C-0.92738281 5.59429688 -1.54226563 6.31359375 -2.17578125 7.0546875 C-4 9 -4 9 -7 11 C-7.66 10.34 -8.32 9.68 -9 9 C-6 6 -3 3 0 0 Z " fill="#DEE4F5" transform="translate(744,709)"/>
<path d="M0 0 C0.33 0 0.66 0 1 0 C1.88826175 7.18808741 2.01202288 13.82242235 1 21 C-2.6363593 14.87711833 -1.45258595 6.71821003 0 0 Z " fill="#144CC7" transform="translate(692,537)"/>
<path d="M0 0 C0.99 0.33 1.98 0.66 3 1 C-1.08733141 4.44868587 -5.43805907 7.23793154 -10 10 C-10.66 9.34 -11.32 8.68 -12 8 C-10.07053972 6.63292504 -8.13289523 5.28155046 -6.1875 3.9375 C-5.10855469 3.18339844 -4.02960937 2.42929688 -2.91796875 1.65234375 C-1.95503906 1.10707031 -0.99210938 0.56179687 0 0 Z " fill="#5CB121" transform="translate(725,107)"/>
<path d="M0 0 C0.66 1.32 1.32 2.64 2 4 C-0.64 6.64 -3.28 9.28 -6 12 C-6.66 11.01 -7.32 10.02 -8 9 C-5.36 6.03 -2.72 3.06 0 0 Z " fill="#1249BE" transform="translate(758,697)"/>
<path d="M0 0 C0.33 1.32 0.66 2.64 1 4 C1.66 4 2.32 4 3 4 C2.67 4.99 2.34 5.98 2 7 C1.67 7 1.34 7 1 7 C1 8.98 1 10.96 1 13 C1.33 13 1.66 13 2 13 C2 15.31 2 17.62 2 20 C1.34 20.33 0.68 20.66 0 21 C-1.16152902 17.51541293 -1.13270324 14.73309492 -1.125 11.0625 C-1.12757813 9.83660156 -1.13015625 8.61070312 -1.1328125 7.34765625 C-1.02667535 4.67237569 -0.79917654 2.53072572 0 0 Z " fill="#1348B5" transform="translate(314,598)"/>
<path d="M0 0 C0.53625 0.2475 1.0725 0.495 1.625 0.75 C-1.56684343 3.39179275 -4.79081339 4.89549017 -8.625 6.4375 C-9.70265625 6.87449219 -10.7803125 7.31148438 -11.890625 7.76171875 C-12.71046875 8.08785156 -13.5303125 8.41398437 -14.375 8.75 C-15.035 8.09 -15.695 7.43 -16.375 6.75 C-15.17875 6.3375 -13.9825 5.925 -12.75 5.5 C-9.76744034 4.40393567 -7.79729503 3.3500504 -5.125 1.5 C-2.375 -0.25 -2.375 -0.25 0 0 Z " fill="#4DA515" transform="translate(720.375,105.25)"/>
<path d="M0 0 C-2.64738916 1.4606285 -3.89448334 2 -7 2 C-7 2.66 -7 3.32 -7 4 C-12.24385089 5.7479503 -16.47322267 6.19392201 -22 6 C-18.29592395 3.53061597 -14.67963641 2.54817625 -10.4375 1.3125 C-9.65697266 1.07466797 -8.87644531 0.83683594 -8.07226562 0.59179688 C-2.24524715 -1.12262357 -2.24524715 -1.12262357 0 0 Z " fill="#87C844" transform="translate(758,65)"/>
<path d="M0 0 C0.66 0.33 1.32 0.66 2 1 C1.125 8.875 1.125 8.875 0 10 C-0.23363881 11.84891946 -0.41303635 13.70488031 -0.5625 15.5625 C-0.64628906 16.57441406 -0.73007812 17.58632812 -0.81640625 18.62890625 C-0.87699219 19.41136719 -0.93757812 20.19382813 -1 21 C-3.37462361 17.43806458 -3.50697546 15.10723598 -3 11 C-2.13620775 7.29018702 -1.1070395 3.64400502 0 0 Z " fill="#20872A" transform="translate(617,146)"/>
<path d="M0 0 C0.99 1.485 0.99 1.485 2 3 C2.66 2.01 3.32 1.02 4 0 C5.32 0.66 6.64 1.32 8 2 C6.68 3.65 5.36 5.3 4 7 C2.68 6.67 1.36 6.34 0 6 C0 4.02 0 2.04 0 0 Z " fill="#164BC3" transform="translate(380,1157)"/>
<path d="M0 0 C3.03413209 2.87444093 5.14570673 5.29141347 7 9 C7.99 9.33 8.98 9.66 10 10 C9.01 11.485 9.01 11.485 8 13 C6.65472507 11.59466816 5.3241269 10.17527548 4 8.75 C3.2575 7.96109375 2.515 7.1721875 1.75 6.359375 C0 4 0 4 0 0 Z " fill="#1B4AC1" transform="translate(583,945)"/>
<path d="M0 0 C0.66 0.33 1.32 0.66 2 1 C0.1875 3.5 0.1875 3.5 -2 6 C-2.99 6 -3.98 6 -5 6 C-5.33 6.99 -5.66 7.98 -6 9 C-6.99 9 -7.98 9 -9 9 C-7.83709195 5.51127585 -6.86032391 4.90023136 -3.9375 2.8125 C-3.20402344 2.28269531 -2.47054687 1.75289062 -1.71484375 1.20703125 C-1.14894531 0.80871094 -0.58304688 0.41039062 0 0 Z " fill="#1649C2" transform="translate(720,735)"/>
<path d="M0 0 C3.3 0 6.6 0 10 0 C10 0.33 10 0.66 10 1 C11.65 1.33 13.3 1.66 15 2 C11.55824478 4.14699969 9.2279708 4.09856795 5.25 3.625 C4.26515625 3.51414062 3.2803125 3.40328125 2.265625 3.2890625 C1.51796875 3.19367188 0.7703125 3.09828125 0 3 C0 2.01 0 1.02 0 0 Z " fill="#E9ECFA" transform="translate(695,315)"/>
<path d="M0 0 C0.66 0.66 1.32 1.32 2 2 C0.74057614 3.19959375 -0.53295286 4.38439443 -1.8125 5.5625 C-2.87404297 6.55443359 -2.87404297 6.55443359 -3.95703125 7.56640625 C-4.63121094 8.03949219 -5.30539062 8.51257813 -6 9 C-6.99 8.67 -7.98 8.34 -9 8 C-6.14723863 5.06799526 -3.34920216 2.35684596 0 0 Z " fill="#1349C3" transform="translate(705,747)"/>
<path d="M0 0 C0.66 0.33 1.32 0.66 2 1 C-1.66616663 6.02400613 -5.54743551 8.2852698 -11 11 C-7.6189962 6.86378916 -4.33409466 3.18683431 0 0 Z " fill="#2452C2" transform="translate(370,499)"/>
<path d="M0 0 C0.33 0.66 0.66 1.32 1 2 C-0.16290805 5.48872415 -1.13967609 6.09976864 -4.0625 8.1875 C-4.79597656 8.71730469 -5.52945312 9.24710938 -6.28515625 9.79296875 C-6.85105469 10.19128906 -7.41695313 10.58960938 -8 11 C-8 8 -8 8 -6.25 5.95703125 C-5.5075 5.24933594 -4.765 4.54164063 -4 3.8125 C-2.88625 2.73935547 -2.88625 2.73935547 -1.75 1.64453125 C-1.1725 1.10183594 -0.595 0.55914063 0 0 Z " fill="#174AC4" transform="translate(464,953)"/>
<path d="M0 0 C0.33 0 0.66 0 1 0 C1 1.98 1 3.96 1 6 C0.360625 6.268125 -0.27875 6.53625 -0.9375 6.8125 C-3.33131686 7.88667752 -3.33131686 7.88667752 -4 11 C-4.66 10.67 -5.32 10.34 -6 10 C-5.02526874 8.33073546 -4.04510211 6.66464358 -3.0625 5 C-2.24458984 3.6078125 -2.24458984 3.6078125 -1.41015625 2.1875 C-0.71212891 1.1046875 -0.71212891 1.1046875 0 0 Z " fill="#1A4CC2" transform="translate(340,533)"/>
<path d="M0 0 C5.75 0.75 5.75 0.75 8 3 C5.04335481 4.4783226 2.25770263 4.06032783 -1 4 C-0.67 2.68 -0.34 1.36 0 0 Z " fill="#0842B6" transform="translate(591,318)"/>
<path d="M0 0 C1.3921875 0.2784375 1.3921875 0.2784375 2.8125 0.5625 C3.534375 0.706875 4.25625 0.85125 5 1 C5 1.33 5 1.66 5 2 C-1.41688675 2.10349817 -7.62694402 1.74507544 -14 1 C-14 0.67 -14 0.34 -14 0 C-4.72727273 -1.31313131 -4.72727273 -1.31313131 0 0 Z " fill="#4868CB" transform="translate(709,314)"/>
<path d="M0 0 C0.99 0.33 1.98 0.66 3 1 C-0.3 3.64 -3.6 6.28 -7 9 C-7 6 -7 6 -5.57421875 4.359375 C-4.95160156 3.82828125 -4.32898438 3.2971875 -3.6875 2.75 C-3.07261719 2.20859375 -2.45773437 1.6671875 -1.82421875 1.109375 C-1.22222656 0.74328125 -0.62023437 0.3771875 0 0 Z " fill="#2A911A" transform="translate(651,97)"/>
<path d="M0 0 C0.66 0.33 1.32 0.66 2 1 C0.19587357 4.26460973 -0.83394693 5.88929795 -4 8 C-5.32 7.67 -6.64 7.34 -8 7 C-5.36 4.69 -2.72 2.38 0 0 Z " fill="#164BC0" transform="translate(451,965)"/>
<path d="M0 0 C2 1 4 2 6 3 C6 3.66 6 4.32 6 5 C3.03 5 0.06 5 -3 5 C-3 4.34 -3 3.68 -3 3 C-2.34 3 -1.68 3 -1 3 C-0.67 2.01 -0.34 1.02 0 0 Z " fill="#0B41B6" transform="translate(501,900)"/>
<path d="M0 0 C0 3 0 3 -1.6875 5 C-4.02804738 7.02425719 -6.23162982 8.61581491 -9 10 C-9.66 9.67 -10.32 9.34 -11 9 C-7.37 6.03 -3.74 3.06 0 0 Z " fill="#1542C0" transform="translate(540,857)"/>
<path d="M0 0 C0.66 0.33 1.32 0.66 2 1 C-0.64 4.3 -3.28 7.6 -6 11 C-6.66 10.67 -7.32 10.34 -8 10 C-7.04367001 8.70684939 -6.08486149 7.41553147 -5.125 6.125 C-4.59132813 5.40570313 -4.05765625 4.68640625 -3.5078125 3.9453125 C-2 2 -2 2 0 0 Z " fill="#208C1B" transform="translate(637,110)"/>
<path d="M0 0 C3.39417765 3.12621626 5.6062718 5.56541027 7 10 C6.01 10 5.02 10 4 10 C1.09677182 6.35022743 0 4.74147821 0 0 Z " fill="#1347BD" transform="translate(333,692)"/>
<path d="M0 0 C2.01822917 0.06510417 4.03645833 0.13020833 6.0546875 0.1953125 C6.3846875 1.1853125 6.7146875 2.1753125 7.0546875 3.1953125 C3.4246875 2.8653125 -0.2053125 2.5353125 -3.9453125 2.1953125 C-1.9453125 0.1953125 -1.9453125 0.1953125 0 0 Z " fill="#1848BB" transform="translate(707.9453125,486.8046875)"/>
<path d="M0 0 C0.33 0.66 0.66 1.32 1 2 C-0.1875 5.5625 -0.1875 5.5625 -2 9 C-4.11328125 9.71484375 -4.11328125 9.71484375 -6 10 C-5.18957164 8.51969728 -4.37659652 7.04078858 -3.5625 5.5625 C-2.88380859 4.32693359 -2.88380859 4.32693359 -2.19140625 3.06640625 C-1 1 -1 1 0 0 Z " fill="#164BC7" transform="translate(426,1121)"/>
<path d="M0 0 C0.66 0.33 1.32 0.66 2 1 C1.45773019 4.79588866 -0.20127563 6.47211993 -3 9 C-3.66 8.67 -4.32 8.34 -5 8 C-3.35 5.36 -1.7 2.72 0 0 Z " fill="#1448C3" transform="translate(440,1099)"/>
<path d="M0 0 C0.99 0.66 1.98 1.32 3 2 C1.02 4.97 1.02 4.97 -1 8 C-1.99 7.67 -2.98 7.34 -4 7 C-2.79618552 4.50638429 -1.54571278 2.31856917 0 0 Z " fill="#194BC5" transform="translate(505,890)"/>
<path d="M0 0 C-2.97 1.65 -5.94 3.3 -9 5 C-9.33 4.01 -9.66 3.02 -10 2 C-4.5 -1.125 -4.5 -1.125 0 0 Z " fill="#D9EECE" transform="translate(728,106)"/>
<path d="M0 0 C1 3 1 3 -0.25 5.625 C-2 8 -2 8 -5 9 C-3.7508258 5.54074837 -2.32472205 2.85306797 0 0 Z " fill="#0A3CB9" transform="translate(446,1091)"/>
<path d="M0 0 C0.33 1.32 0.66 2.64 1 4 C-1.4375 6.75 -1.4375 6.75 -4 9 C-4.66 8.34 -5.32 7.68 -6 7 C-4.02 4.69 -2.04 2.38 0 0 Z " fill="#1E4FC0" transform="translate(479,936)"/>
<path d="M0 0 C0.99 0.495 0.99 0.495 2 1 C2 1.66 2 2.32 2 3 C2.66 3 3.32 3 4 3 C6 6 6 6 5.625 8.1875 C5.41875 8.785625 5.2125 9.38375 5 10 C0 4.5 0 4.5 0 0 Z " fill="#194DC2" transform="translate(787,522)"/>
<path d="M0 0 C-1.51671964 4.55015893 -5.16891053 6.50057264 -9 9 C-9 6 -9 6 -7.5390625 4.39453125 C-6.59160156 3.61142578 -6.59160156 3.61142578 -5.625 2.8125 C-4.68527344 2.01779297 -4.68527344 2.01779297 -3.7265625 1.20703125 C-2 0 -2 0 0 0 Z " fill="#238B21" transform="translate(657,145)"/>
<path d="M0 0 C0 0.99 0 1.98 0 3 C-2.95664519 4.4783226 -5.74229737 4.06032783 -9 4 C-3.7826087 0 -3.7826087 0 0 0 Z " fill="#49A32F" transform="translate(674,85)"/>
<path d="M0 0 C0 0.99 0 1.98 0 3 C-3.07322544 3.91058531 -5.80097361 4.08886184 -9 4 C-3.7826087 0 -3.7826087 0 0 0 Z " fill="#2455C8" transform="translate(500,269)"/>
<path d="M0 0 C0.66 0.99 1.32 1.98 2 3 C1.38125 3.7425 0.7625 4.485 0.125 5.25 C-1.60437281 7.48801188 -2.86106661 9.43739987 -4 12 C-4.66 11.34 -5.32 10.68 -6 10 C-4.02 6.7 -2.04 3.4 0 0 Z " fill="#E3F2DC" transform="translate(748,147)"/>
<path d="M0 0 C0.66 0.66 1.32 1.32 2 2 C1.67582137 5.80909895 1.14418558 7.78372163 -1 11 C-1.0270043 9.54176788 -1.04639787 8.08339325 -1.0625 6.625 C-1.07410156 5.81289062 -1.08570313 5.00078125 -1.09765625 4.1640625 C-1 2 -1 2 0 0 Z " fill="#86CD3A" transform="translate(765,91)"/>
<path d="M0 0 C2 3 2 3 1.625 6.1875 C1.41875 7.115625 1.2125 8.04375 1 9 C0.01 9.33 -0.98 9.66 -2 10 C-1.34 6.7 -0.68 3.4 0 0 Z " fill="#164EC4" transform="translate(400,1096)"/>
<path d="M0 0 C3.3 1.65 6.6 3.3 10 5 C7 6 7 6 4.4375 5.3125 C2 4 2 4 0 0 Z " fill="#1A4BC7" transform="translate(538,934)"/>
<path d="M0 0 C0.66 0.66 1.32 1.32 2 2 C0.68 4.31 -0.64 6.62 -2 9 C-2.66 8.67 -3.32 8.34 -4 8 C-2.87548273 5.0280615 -1.77706209 2.66559313 0 0 Z " fill="#EEF1FA" transform="translate(488,919)"/>
<path d="M0 0 C0.66 1.32 1.32 2.64 2 4 C0.71034824 5.37562854 -0.62689293 6.70766393 -2 8 C-2.66 8 -3.32 8 -4 8 C-2.87548273 5.0280615 -1.77706209 2.66559313 0 0 Z " fill="#184DC2" transform="translate(775,674)"/>
<path d="M0 0 C0.33 0 0.66 0 1 0 C1 2.97 1 5.94 1 9 C-0.32 9.33 -1.64 9.66 -3 10 C-2.01 6.7 -1.02 3.4 0 0 Z " fill="#2354C4" transform="translate(797,630)"/>
<path d="M0 0 C3.24299151 2.38957269 5.50902342 4.2047869 7 8 C6.01 8 5.02 8 4 8 C0 2.74285714 0 2.74285714 0 0 Z " fill="#1144C9" transform="translate(869,482)"/>
<path d="M0 0 C0.99 0.33 1.98 0.66 3 1 C1.63016497 4.16115776 1.0109362 4.9927092 -2 7 C-2.33 6.34 -2.66 5.68 -3 5 C-1.5625 2.375 -1.5625 2.375 0 0 Z " fill="#184FC9" transform="translate(449,1085)"/>
<path d="M0 0 C0.66 0.99 1.32 1.98 2 3 C-0.97 5.475 -0.97 5.475 -4 8 C-4 6.68 -4 5.36 -4 4 C-3.34 4 -2.68 4 -2 4 C-2 3.34 -2 2.68 -2 2 C-1.34 2 -0.68 2 0 2 C0 1.34 0 0.68 0 0 Z " fill="#2359C5" transform="translate(817,773)"/>
<path d="M0 0 C1 3 1 3 0 6 C-0.66 6 -1.32 6 -2 6 C-2 6.99 -2 7.98 -2 9 C-2.66 9 -3.32 9 -4 9 C-3.71848913 7.68528432 -3.42446661 6.37324233 -3.125 5.0625 C-2.96257812 4.33160156 -2.80015625 3.60070312 -2.6328125 2.84765625 C-2 1 -2 1 0 0 Z " fill="#1349C1" transform="translate(322,573)"/>
<path d="M0 0 C-3.28463659 2.18975773 -6.20696275 2.99806563 -10 4 C-10.33 3.34 -10.66 2.68 -11 2 C-7.17010894 0.19769832 -4.21878192 -0.19622241 0 0 Z " fill="#2D5BCB" transform="translate(554,332)"/>
<path d="M0 0 C0.33 0.66 0.66 1.32 1 2 C-1.40983607 6.70491803 -1.40983607 6.70491803 -4 8 C-3.50168276 4.31245243 -2.89932357 2.39509338 0 0 Z " fill="#1447C1" transform="translate(503,1031)"/>
<path d="M0 0 C0.33 0 0.66 0 1 0 C1.25 3.25 1.25 3.25 1 7 C-0.32 8.32 -1.64 9.64 -3 11 C-2.01 7.37 -1.02 3.74 0 0 Z " fill="#C8D5F2" transform="translate(681,609)"/>
<path d="M0 0 C0.33 1.32 0.66 2.64 1 4 C1.66 4 2.32 4 3 4 C2.02391783 6.92824652 0.89213369 8.61426621 -1 11 C-1.14285714 3.57142857 -1.14285714 3.57142857 0 0 Z " fill="#476ECE" transform="translate(314,598)"/>
<path d="M0 0 C1.485 0.99 1.485 0.99 3 2 C2.67 4.97 2.34 7.94 2 11 C1.67 11 1.34 11 1 11 C0.67 7.37 0.34 3.74 0 0 Z " fill="#275DC6" transform="translate(315,590)"/>
<path d="M0 0 C0.66 0.66 1.32 1.32 2 2 C0.02 3.32 -1.96 4.64 -4 6 C-4.66 5.34 -5.32 4.68 -6 4 C-4.02 2.68 -2.04 1.36 0 0 Z " fill="#4DA320" transform="translate(706,120)"/>
<path d="M0 0 C0.66 0 1.32 0 2 0 C2 1.98 2 3.96 2 6 C1.01 6.33 0.02 6.66 -1 7 C-2 4 -2 4 -1.0625 1.8125 C-0.5365625 0.9153125 -0.5365625 0.9153125 0 0 Z " fill="#0D40B5" transform="translate(430,1114)"/>
<path d="M0 0 C-2.85306797 2.32472205 -5.54074837 3.7508258 -9 5 C-9 4.34 -9 3.68 -9 3 C-8.34 3 -7.68 3 -7 3 C-7 2.34 -7 1.68 -7 1 C-4.53721199 -0.231394 -2.7204945 -0.07159196 0 0 Z " fill="#164CC6" transform="translate(515,1086)"/>
<path d="M0 0 C0.66 0.33 1.32 0.66 2 1 C-2.5 5 -2.5 5 -7 5 C-7 4.34 -7 3.68 -7 3 C-4.69631264 1.93347808 -2.35981813 0.93578995 0 0 Z " fill="#D7E0F6" transform="translate(552,745)"/>
<path d="M0 0 C0.66 0.33 1.32 0.66 2 1 C1.67 3.97 1.34 6.94 1 10 C0.67 10 0.34 10 0 10 C-1.125 3.375 -1.125 3.375 0 0 Z " fill="#1A52C5" transform="translate(319,658)"/>
<path d="M0 0 C0.33 0 0.66 0 1 0 C2.0070238 5.03511899 1.97387813 8.23947038 0 13 C-0.33 13 -0.66 13 -1 13 C-1.07654536 8.48382401 -1.10228696 4.40914783 0 0 Z " fill="#B8C7F1" transform="translate(692,558)"/>
<path d="M0 0 C0 0.99 0 1.98 0 3 C-2.64 2.67 -5.28 2.34 -8 2 C-4.77208445 -0.1519437 -3.71599191 -0.20086443 0 0 Z " fill="#194CBD" transform="translate(726,489)"/>
<path d="M0 0 C0.66 0.33 1.32 0.66 2 1 C1.67 3.64 1.34 6.28 1 9 C0.01 9.33 -0.98 9.66 -2 10 C-1.34 6.7 -0.68 3.4 0 0 Z " fill="#0F7C1A" transform="translate(617,146)"/>
</svg>
